<svg xmlns="http://www.w3.org/2000/svg" xmlns:xlink="http://www.w3.org/1999/xlink" width="540" zoomAndPan="magnify" viewBox="0 0 404.88 149.999998" height="200" preserveAspectRatio="xMidYMid meet" version="1.0"><defs><g/><clipPath id="97caa771c3"><path d="M 17.105469 13.535156 L 126.398438 13.535156 L 126.398438 128.800781 L 17.105469 128.800781 Z M 17.105469 13.535156 " clip-rule="nonzero"/></clipPath><clipPath id="ad47ea8cfe"><path d="M 22.800781 13.535156 L 120.703125 13.535156 C 123.847656 13.535156 126.398438 16.085938 126.398438 19.230469 L 126.398438 122.957031 C 126.398438 126.101562 123.847656 128.652344 120.703125 128.652344 L 22.800781 128.652344 C 19.65625 128.652344 17.105469 126.101562 17.105469 122.957031 L 17.105469 19.230469 C 17.105469 16.085938 19.65625 13.535156 22.800781 13.535156 Z M 22.800781 13.535156 " clip-rule="nonzero"/></clipPath><clipPath id="7d74a48f1e"><path d="M 33.882812 30.683594 L 107 30.683594 L 107 111.5625 L 33.882812 111.5625 Z M 33.882812 30.683594 " clip-rule="nonzero"/></clipPath></defs><g clip-path="url(#97caa771c3)"><g clip-path="url(#ad47ea8cfe)"><path fill="#2e2e2e" d="M 17.105469 13.535156 L 126.398438 13.535156 L 126.398438 128.800781 L 17.105469 128.800781 Z M 17.105469 13.535156 " fill-opacity="1" fill-rule="nonzero"/></g></g><g clip-path="url(#7d74a48f1e)"><path fill="#ffffff" d="M 78.835938 79.820312 L 79.375 79.8125 C 83.546875 79.769531 88.160156 83.234375 88.226562 86.71875 C 88.292969 90.160156 83.855469 93.621094 81.265625 93.648438 C 81.265625 93.648438 75.863281 93.726562 74.519531 93.792969 C 74.242188 93.808594 73.964844 93.816406 73.691406 93.820312 L 58.582031 93.984375 C 56.429688 94.007812 54.65625 95.699219 54.589844 97.78125 C 54.523438 99.929688 56.363281 101.664062 58.574219 101.644531 L 68.632812 101.539062 C 69.253906 101.53125 69.75 102.011719 69.746094 102.617188 C 69.746094 102.625 69.746094 102.636719 69.742188 102.644531 C 69.738281 103.296875 69.1875 103.832031 68.519531 103.835938 L 63.945312 103.882812 C 61.792969 103.90625 60.023438 105.597656 59.957031 107.679688 C 59.886719 109.828125 61.726562 111.5625 63.9375 111.542969 L 83.464844 111.339844 C 83.765625 111.335938 84.0625 111.300781 84.347656 111.234375 C 90.785156 110.730469 96.257812 108.3125 100.28125 104.167969 C 104.570312 99.746094 106.882812 93.707031 106.96875 86.703125 L 106.972656 86.582031 C 107.058594 79.566406 104.878906 73.515625 100.667969 69.089844 C 96.242188 64.441406 89.976562 62.027344 82.542969 62.105469 L 79.3125 62.136719 C 79.035156 62.140625 78.761719 62.15625 78.492188 62.183594 L 60.910156 62.34375 C 60.117188 62.324219 59.566406 62.3125 59.566406 62.3125 C 56.980469 62.261719 52.570312 58.757812 52.667969 55.316406 C 52.765625 51.832031 57.410156 48.410156 61.578125 48.492188 L 65.175781 48.5625 C 65.320312 48.5625 65.460938 48.5625 65.601562 48.558594 C 65.929688 48.550781 66.261719 48.542969 66.597656 48.550781 L 77.570312 48.75 L 81.414062 48.824219 L 86.777344 48.925781 C 88.988281 48.96875 90.84375 47.25 90.792969 45.101562 C 90.75 43.019531 88.992188 41.3125 86.839844 41.269531 L 81.390625 41.164062 L 79.546875 41.128906 C 78.921875 41.117188 78.414062 40.613281 78.414062 40.007812 L 78.414062 39.976562 C 78.410156 39.332031 78.949219 38.820312 79.613281 38.832031 L 83.386719 38.90625 C 85.597656 38.949219 87.453125 37.226562 87.40625 35.082031 C 87.359375 33 85.601562 31.289062 83.453125 31.25 L 62.621094 30.871094 C 62.351562 30.839844 62.082031 30.820312 61.804688 30.816406 L 58.574219 30.753906 C 51.140625 30.609375 44.851562 32.96875 40.386719 37.578125 C 36.136719 41.96875 33.902344 47.996094 33.925781 55.011719 L 33.925781 55.132812 C 33.949219 62.136719 36.207031 68.195312 40.457031 72.65625 C 43.394531 75.742188 47.136719 77.890625 51.476562 79.03125 M 48.578125 94.089844 L 45.617188 94.117188 C 43.4375 94.140625 41.652344 95.875 41.625 97.988281 C 41.597656 100.101562 43.34375 101.800781 45.519531 101.777344 L 48.480469 101.746094 C 50.660156 101.722656 52.445312 99.992188 52.472656 97.875 C 52.5 95.761719 50.753906 94.066406 48.578125 94.089844 Z M 89 35.1875 C 88.992188 33.070312 90.75 31.390625 92.929688 31.433594 L 95.890625 31.488281 C 98.066406 31.53125 99.839844 33.28125 99.84375 35.394531 C 99.851562 37.511719 98.09375 39.191406 95.914062 39.148438 L 92.953125 39.089844 C 90.777344 39.050781 89.007812 37.300781 89 35.1875 " fill-opacity="1" fill-rule="nonzero"/></g><g fill="#2e2e2e" fill-opacity="1"><g transform="translate(129.542252, 107.674961)"><g><path d="M 43.234375 -37.875 L 43.234375 0 L 32.8125 0 L 32.8125 -4.5 C 31.351562 -2.863281 29.613281 -1.609375 27.59375 -0.734375 C 25.582031 0.128906 23.398438 0.5625 21.046875 0.5625 C 16.078125 0.5625 12.132812 -0.867188 9.21875 -3.734375 C 6.3125 -6.597656 4.859375 -10.84375 4.859375 -16.46875 L 4.859375 -37.875 L 15.84375 -37.875 L 15.84375 -18.09375 C 15.84375 -11.988281 18.398438 -8.9375 23.515625 -8.9375 C 26.140625 -8.9375 28.25 -9.789062 29.84375 -11.5 C 31.445312 -13.21875 32.25 -15.769531 32.25 -19.15625 L 32.25 -37.875 Z M 43.234375 -37.875 "/></g></g></g><g fill="#2e2e2e" fill-opacity="1"><g transform="translate(184.171009, 107.674961)"><g><path d="M 5.0625 -52.234375 L 16.046875 -52.234375 L 16.046875 0 L 5.0625 0 Z M 5.0625 -52.234375 "/></g></g></g><g fill="#2e2e2e" fill-opacity="1"><g transform="translate(211.626586, 107.674961)"><g><path d="M 5.0625 -52.234375 L 16.046875 -52.234375 L 16.046875 0 L 5.0625 0 Z M 5.0625 -52.234375 "/></g></g></g><g fill="#2e2e2e" fill-opacity="1"><g transform="translate(239.082162, 107.674961)"><g><path d="M 5.0625 -37.875 L 16.046875 -37.875 L 16.046875 0 L 5.0625 0 Z M 10.5625 -43.15625 C 8.539062 -43.15625 6.894531 -43.738281 5.625 -44.90625 C 4.363281 -46.082031 3.734375 -47.539062 3.734375 -49.28125 C 3.734375 -51.019531 4.363281 -52.472656 5.625 -53.640625 C 6.894531 -54.816406 8.539062 -55.40625 10.5625 -55.40625 C 12.582031 -55.40625 14.222656 -54.84375 15.484375 -53.71875 C 16.753906 -52.59375 17.390625 -51.1875 17.390625 -49.5 C 17.390625 -47.664062 16.753906 -46.148438 15.484375 -44.953125 C 14.222656 -43.753906 12.582031 -43.15625 10.5625 -43.15625 Z M 10.5625 -43.15625 "/></g></g></g><g fill="#2e2e2e" fill-opacity="1"><g transform="translate(266.537738, 107.674961)"><g><path d="M 23.09375 0.5625 C 19.101562 0.5625 15.523438 -0.269531 12.359375 -1.9375 C 9.191406 -3.601562 6.710938 -5.914062 4.921875 -8.875 C 3.140625 -11.832031 2.25 -15.1875 2.25 -18.9375 C 2.25 -22.695312 3.140625 -26.050781 4.921875 -29 C 6.710938 -31.957031 9.191406 -34.269531 12.359375 -35.9375 C 15.523438 -37.601562 19.101562 -38.4375 23.09375 -38.4375 C 27.082031 -38.4375 30.648438 -37.601562 33.796875 -35.9375 C 36.941406 -34.269531 39.40625 -31.957031 41.1875 -29 C 42.96875 -26.050781 43.859375 -22.695312 43.859375 -18.9375 C 43.859375 -15.1875 42.96875 -11.832031 41.1875 -8.875 C 39.40625 -5.914062 36.941406 -3.601562 33.796875 -1.9375 C 30.648438 -0.269531 27.082031 0.5625 23.09375 0.5625 Z M 23.09375 -8.453125 C 25.90625 -8.453125 28.210938 -9.398438 30.015625 -11.296875 C 31.828125 -13.203125 32.734375 -15.75 32.734375 -18.9375 C 32.734375 -22.132812 31.828125 -24.679688 30.015625 -26.578125 C 28.210938 -28.484375 25.90625 -29.4375 23.09375 -29.4375 C 20.28125 -29.4375 17.957031 -28.484375 16.125 -26.578125 C 14.289062 -24.679688 13.375 -22.132812 13.375 -18.9375 C 13.375 -15.75 14.289062 -13.203125 16.125 -11.296875 C 17.957031 -9.398438 20.28125 -8.453125 23.09375 -8.453125 Z M 23.09375 -8.453125 "/></g></g></g><g fill="#2e2e2e" fill-opacity="1"><g transform="translate(318.913802, 107.674961)"><g><path d="M 28.09375 -38.4375 C 32.78125 -38.4375 36.566406 -37.03125 39.453125 -34.21875 C 42.347656 -31.40625 43.796875 -27.226562 43.796875 -21.6875 L 43.796875 0 L 32.8125 0 L 32.8125 -20 C 32.8125 -23 32.148438 -25.238281 30.828125 -26.71875 C 29.515625 -28.195312 27.617188 -28.9375 25.140625 -28.9375 C 22.367188 -28.9375 20.160156 -28.078125 18.515625 -26.359375 C 16.867188 -24.648438 16.046875 -22.109375 16.046875 -18.734375 L 16.046875 0 L 5.0625 0 L 5.0625 -37.875 L 15.5625 -37.875 L 15.5625 -33.4375 C 17.019531 -35.039062 18.828125 -36.273438 20.984375 -37.140625 C 23.140625 -38.003906 25.507812 -38.4375 28.09375 -38.4375 Z M 28.09375 -38.4375 "/></g></g></g><path stroke-linecap="butt" transform="matrix(0.749777, 0.0013312, -0.0013312, 0.749777, 136.147294, 125.986084)" fill="none" stroke-linejoin="miter" d="M -0.0010254 1.498169 L 312.842166 1.500187 " stroke="#2e2e2e" stroke-width="3" stroke-opacity="1" stroke-miterlimit="4"/><path stroke-linecap="butt" transform="matrix(0.749778, -0.000000000000000186, 0.000000000000000186, 0.749778, 136.145303, 118.673131)" fill="none" stroke-linejoin="miter" d="M -0.00102933 1.498769 L 305.250887 1.498769 " stroke="#2e2e2e" stroke-width="3" stroke-opacity="1" stroke-miterlimit="4"/></svg>