<svg xmlns="http://www.w3.org/2000/svg" xmlns:xlink="http://www.w3.org/1999/xlink" width="500" zoomAndPan="magnify" viewBox="0 0 375 374.999991" height="500" preserveAspectRatio="xMidYMid meet" version="1.0"><defs><clipPath id="00ee7a58de"><path d="M 49.289062 40 L 316.289062 40 L 316.289062 335.242188 L 49.289062 335.242188 Z M 49.289062 40 " clip-rule="nonzero"/></clipPath></defs><g clip-path="url(#00ee7a58de)"><path fill="#191919" d="M 213.371094 219.367188 L 215.347656 219.347656 C 230.570312 219.179688 247.414062 231.832031 247.660156 244.546875 C 247.902344 257.117188 231.691406 269.75 222.242188 269.851562 C 222.242188 269.851562 202.527344 270.136719 197.625 270.378906 C 196.609375 270.429688 195.597656 270.464844 194.589844 270.472656 L 139.4375 271.078125 C 131.582031 271.15625 125.117188 277.335938 124.875 284.933594 C 124.625 292.769531 131.34375 299.113281 139.414062 299.03125 L 176.132812 298.652344 C 178.394531 298.625 180.207031 300.382812 180.1875 302.582031 C 180.1875 302.617188 180.1875 302.652344 180.183594 302.6875 C 180.167969 305.066406 178.15625 307.015625 175.710938 307.039062 L 159.015625 307.210938 C 151.160156 307.292969 144.699219 313.46875 144.457031 321.066406 C 144.207031 328.902344 150.925781 335.246094 158.996094 335.164062 L 230.269531 334.429688 C 231.375 334.417969 232.453125 334.28125 233.492188 334.042969 C 256.988281 332.207031 276.976562 323.375 291.652344 308.246094 C 307.3125 292.101562 315.757812 270.054688 316.070312 244.492188 L 316.078125 244.058594 C 316.394531 218.445312 308.4375 196.363281 293.0625 180.207031 C 276.917969 163.238281 254.042969 154.417969 226.90625 154.699219 L 215.113281 154.820312 C 214.105469 154.828125 213.105469 154.890625 212.121094 154.984375 L 147.9375 155.574219 C 145.046875 155.503906 143.035156 155.457031 143.035156 155.457031 C 133.589844 155.273438 117.492188 142.492188 117.847656 129.925781 C 118.207031 117.210938 135.164062 104.710938 150.382812 105.015625 L 163.515625 105.269531 C 164.035156 105.277344 164.550781 105.277344 165.0625 105.257812 C 166.269531 105.226562 167.480469 105.203125 168.699219 105.222656 L 208.757812 105.953125 L 222.789062 106.222656 L 242.367188 106.601562 C 250.433594 106.757812 257.210938 100.476562 257.027344 92.640625 C 256.859375 85.042969 250.449219 78.800781 242.59375 78.652344 L 222.695312 78.269531 L 215.976562 78.136719 C 213.691406 78.09375 211.839844 76.257812 211.832031 74.042969 L 211.832031 73.929688 C 211.824219 71.578125 213.785156 69.710938 216.210938 69.753906 L 229.992188 70.023438 C 238.058594 70.179688 244.835938 63.894531 244.660156 56.058594 C 244.484375 48.460938 238.078125 42.222656 230.222656 42.070312 L 154.191406 40.6875 C 153.207031 40.582031 152.210938 40.511719 151.199219 40.496094 L 139.410156 40.265625 C 112.277344 39.738281 89.320312 48.355469 73.023438 65.175781 C 57.507812 81.195312 49.347656 103.203125 49.4375 128.816406 L 49.4375 129.253906 C 49.523438 154.816406 57.769531 176.9375 73.28125 193.21875 C 84.007812 204.480469 97.660156 212.324219 113.503906 216.492188 M 102.921875 271.453125 L 92.109375 271.5625 C 84.160156 271.648438 77.636719 277.972656 77.542969 285.691406 C 77.445312 293.410156 83.8125 299.601562 91.761719 299.519531 L 102.570312 299.410156 C 110.523438 299.324219 117.042969 293 117.140625 285.28125 C 117.234375 277.5625 110.867188 271.371094 102.921875 271.453125 Z M 250.472656 56.441406 C 250.445312 48.722656 256.871094 42.585938 264.816406 42.742188 L 275.628906 42.949219 C 283.574219 43.101562 290.039062 49.488281 290.066406 57.203125 C 290.089844 64.925781 283.667969 71.058594 275.71875 70.90625 L 264.910156 70.699219 C 256.964844 70.542969 250.5 64.164062 250.472656 56.441406 " fill-opacity="1" fill-rule="nonzero"/></g></svg>